<svg id="Layer_1" data-name="Layer 1" xmlns="http://www.w3.org/2000/svg" width="512" height="384" viewBox="0 0 512 384"><defs><style>.cls-1{fill:#fff;}</style></defs><path class="cls-1" d="M0,64A63.9952,63.9952,0,0,1,64,0H448a64.0272,64.0272,0,0,1,64,64V320a64.0593,64.0593,0,0,1-64,64H64A64.0272,64.0272,0,0,1,0,320Zm48,0V86.1L220.5,227.7a55.7966,55.7966,0,0,0,71,0L464,86.1v-23c0-7.9-7.2-16-16-16H64c-8.84,0-16,8.1-16,16Zm0,84.2V320a16.0212,16.0212,0,0,0,16,16H448a16.047,16.047,0,0,0,16-16V148.2L322,264.8c-38.4,31.5-93.6,31.5-132.9,0Z"/></svg>